<mxfile host="app.diagrams.net" modified="2024-04-26T14:45:51.150Z" agent="Mozilla/5.0 (Windows NT 10.0; Win64; x64) AppleWebKit/537.36 (KHTML, like Gecko) Chrome/124.0.0.0 Safari/537.36" etag="tuJZeKb88zWN7Plm1R-4" version="24.3.0" type="device">
  <diagram name="PÃ¡gina-1" id="xO-m232qHy2haF3cP05o">
    <mxGraphModel dx="1674" dy="746" grid="1" gridSize="10" guides="1" tooltips="1" connect="1" arrows="1" fold="1" page="1" pageScale="1" pageWidth="827" pageHeight="1169" math="0" shadow="0">
      <root>
        <mxCell id="0" />
        <mxCell id="1" parent="0" />
        <mxCell id="PfmC7XR5RCS_PkKDe063-16" value="" style="edgeStyle=orthogonalEdgeStyle;rounded=0;orthogonalLoop=1;jettySize=auto;html=1;" parent="1" source="PfmC7XR5RCS_PkKDe063-17" target="PfmC7XR5RCS_PkKDe063-19" edge="1">
          <mxGeometry relative="1" as="geometry" />
        </mxCell>
        <mxCell id="PfmC7XR5RCS_PkKDe063-17" value="cure()" style="ellipse;whiteSpace=wrap;html=1;" parent="1" vertex="1">
          <mxGeometry x="200" width="120" height="80" as="geometry" />
        </mxCell>
        <mxCell id="PfmC7XR5RCS_PkKDe063-18" value="" style="edgeStyle=orthogonalEdgeStyle;rounded=0;orthogonalLoop=1;jettySize=auto;html=1;" parent="1" source="PfmC7XR5RCS_PkKDe063-19" target="PfmC7XR5RCS_PkKDe063-21" edge="1">
          <mxGeometry relative="1" as="geometry" />
        </mxCell>
        <mxCell id="PfmC7XR5RCS_PkKDe063-19" value="getHealth" style="shape=parallelogram;perimeter=parallelogramPerimeter;whiteSpace=wrap;html=1;fixedSize=1;" parent="1" vertex="1">
          <mxGeometry x="200" y="120" width="120" height="60" as="geometry" />
        </mxCell>
        <mxCell id="PfmC7XR5RCS_PkKDe063-20" value="" style="edgeStyle=orthogonalEdgeStyle;rounded=0;orthogonalLoop=1;jettySize=auto;html=1;" parent="1" source="PfmC7XR5RCS_PkKDe063-21" target="PfmC7XR5RCS_PkKDe063-23" edge="1">
          <mxGeometry relative="1" as="geometry" />
        </mxCell>
        <mxCell id="PfmC7XR5RCS_PkKDe063-21" value="result = actualHealth + healthToAdd" style="rounded=0;whiteSpace=wrap;html=1;" parent="1" vertex="1">
          <mxGeometry x="200" y="220" width="120" height="60" as="geometry" />
        </mxCell>
        <mxCell id="PfmC7XR5RCS_PkKDe063-22" value="" style="edgeStyle=orthogonalEdgeStyle;rounded=0;orthogonalLoop=1;jettySize=auto;html=1;" parent="1" source="PfmC7XR5RCS_PkKDe063-23" target="PfmC7XR5RCS_PkKDe063-24" edge="1">
          <mxGeometry relative="1" as="geometry" />
        </mxCell>
        <mxCell id="PfmC7XR5RCS_PkKDe063-23" value="health = result" style="shape=document;whiteSpace=wrap;html=1;boundedLbl=1;" parent="1" vertex="1">
          <mxGeometry x="200" y="320" width="120" height="80" as="geometry" />
        </mxCell>
        <mxCell id="PfmC7XR5RCS_PkKDe063-24" value="end" style="ellipse;whiteSpace=wrap;html=1;" parent="1" vertex="1">
          <mxGeometry x="200" y="440" width="120" height="80" as="geometry" />
        </mxCell>
        <mxCell id="PfmC7XR5RCS_PkKDe063-27" value="" style="edgeStyle=orthogonalEdgeStyle;rounded=0;orthogonalLoop=1;jettySize=auto;html=1;" parent="1" source="PfmC7XR5RCS_PkKDe063-25" target="PfmC7XR5RCS_PkKDe063-26" edge="1">
          <mxGeometry relative="1" as="geometry" />
        </mxCell>
        <mxCell id="PfmC7XR5RCS_PkKDe063-25" value="doDamage()" style="ellipse;whiteSpace=wrap;html=1;" parent="1" vertex="1">
          <mxGeometry x="450" width="120" height="80" as="geometry" />
        </mxCell>
        <mxCell id="PfmC7XR5RCS_PkKDe063-31" style="edgeStyle=orthogonalEdgeStyle;rounded=0;orthogonalLoop=1;jettySize=auto;html=1;entryX=0.5;entryY=0;entryDx=0;entryDy=0;exitX=1;exitY=0.5;exitDx=0;exitDy=0;" parent="1" source="PfmC7XR5RCS_PkKDe063-26" target="PfmC7XR5RCS_PkKDe063-30" edge="1">
          <mxGeometry relative="1" as="geometry" />
        </mxCell>
        <mxCell id="PfmC7XR5RCS_PkKDe063-34" value="False" style="edgeLabel;html=1;align=center;verticalAlign=middle;resizable=0;points=[];" parent="PfmC7XR5RCS_PkKDe063-31" vertex="1" connectable="0">
          <mxGeometry x="0.1596" y="-3" relative="1" as="geometry">
            <mxPoint as="offset" />
          </mxGeometry>
        </mxCell>
        <mxCell id="PfmC7XR5RCS_PkKDe063-26" value="health &amp;lt;= 0" style="rhombus;whiteSpace=wrap;html=1;" parent="1" vertex="1">
          <mxGeometry x="450" y="120" width="120" height="80" as="geometry" />
        </mxCell>
        <mxCell id="PfmC7XR5RCS_PkKDe063-38" style="edgeStyle=orthogonalEdgeStyle;rounded=0;orthogonalLoop=1;jettySize=auto;html=1;entryX=1;entryY=0.5;entryDx=0;entryDy=0;" parent="1" source="PfmC7XR5RCS_PkKDe063-30" target="PfmC7XR5RCS_PkKDe063-36" edge="1">
          <mxGeometry relative="1" as="geometry" />
        </mxCell>
        <mxCell id="PfmC7XR5RCS_PkKDe063-30" value="isDead = false" style="shape=document;whiteSpace=wrap;html=1;boundedLbl=1;" parent="1" vertex="1">
          <mxGeometry x="550" y="240" width="120" height="80" as="geometry" />
        </mxCell>
        <mxCell id="PfmC7XR5RCS_PkKDe063-32" style="edgeStyle=orthogonalEdgeStyle;rounded=0;orthogonalLoop=1;jettySize=auto;html=1;entryX=0.5;entryY=0;entryDx=0;entryDy=0;exitX=0;exitY=0.5;exitDx=0;exitDy=0;" parent="1" source="PfmC7XR5RCS_PkKDe063-26" target="PfmC7XR5RCS_PkKDe063-33" edge="1">
          <mxGeometry relative="1" as="geometry">
            <mxPoint x="430" y="160" as="sourcePoint" />
          </mxGeometry>
        </mxCell>
        <mxCell id="PfmC7XR5RCS_PkKDe063-35" value="True" style="edgeLabel;html=1;align=center;verticalAlign=middle;resizable=0;points=[];" parent="PfmC7XR5RCS_PkKDe063-32" vertex="1" connectable="0">
          <mxGeometry x="0.1246" y="-1" relative="1" as="geometry">
            <mxPoint as="offset" />
          </mxGeometry>
        </mxCell>
        <mxCell id="PfmC7XR5RCS_PkKDe063-33" value="isDead = true" style="shape=document;whiteSpace=wrap;html=1;boundedLbl=1;" parent="1" vertex="1">
          <mxGeometry x="350" y="240" width="120" height="80" as="geometry" />
        </mxCell>
        <mxCell id="PfmC7XR5RCS_PkKDe063-36" value="end" style="ellipse;whiteSpace=wrap;html=1;" parent="1" vertex="1">
          <mxGeometry x="450" y="360" width="120" height="80" as="geometry" />
        </mxCell>
        <mxCell id="PfmC7XR5RCS_PkKDe063-37" style="edgeStyle=orthogonalEdgeStyle;rounded=0;orthogonalLoop=1;jettySize=auto;html=1;entryX=0.008;entryY=0.601;entryDx=0;entryDy=0;entryPerimeter=0;" parent="1" source="PfmC7XR5RCS_PkKDe063-33" target="PfmC7XR5RCS_PkKDe063-36" edge="1">
          <mxGeometry relative="1" as="geometry">
            <mxPoint x="410" y="330" as="sourcePoint" />
          </mxGeometry>
        </mxCell>
        <mxCell id="PfmC7XR5RCS_PkKDe063-55" value="" style="edgeStyle=orthogonalEdgeStyle;rounded=0;orthogonalLoop=1;jettySize=auto;html=1;" parent="1" source="PfmC7XR5RCS_PkKDe063-51" target="PfmC7XR5RCS_PkKDe063-54" edge="1">
          <mxGeometry relative="1" as="geometry" />
        </mxCell>
        <mxCell id="PfmC7XR5RCS_PkKDe063-51" value="&lt;span style=&quot;text-align: left;&quot;&gt;getDamage()&lt;/span&gt;" style="ellipse;whiteSpace=wrap;html=1;" parent="1" vertex="1">
          <mxGeometry x="736" y="30" width="120" height="80" as="geometry" />
        </mxCell>
        <mxCell id="PfmC7XR5RCS_PkKDe063-63" value="" style="edgeStyle=orthogonalEdgeStyle;rounded=0;orthogonalLoop=1;jettySize=auto;html=1;" parent="1" source="PfmC7XR5RCS_PkKDe063-54" target="PfmC7XR5RCS_PkKDe063-58" edge="1">
          <mxGeometry relative="1" as="geometry" />
        </mxCell>
        <mxCell id="PfmC7XR5RCS_PkKDe063-54" value="getHealth()" style="shape=parallelogram;perimeter=parallelogramPerimeter;whiteSpace=wrap;html=1;fixedSize=1;" parent="1" vertex="1">
          <mxGeometry x="736" y="150" width="120" height="60" as="geometry" />
        </mxCell>
        <mxCell id="PfmC7XR5RCS_PkKDe063-101" style="edgeStyle=orthogonalEdgeStyle;rounded=0;orthogonalLoop=1;jettySize=auto;html=1;exitX=0;exitY=0.5;exitDx=0;exitDy=0;entryX=0;entryY=0.5;entryDx=0;entryDy=0;" parent="1" source="PfmC7XR5RCS_PkKDe063-58" target="PfmC7XR5RCS_PkKDe063-73" edge="1">
          <mxGeometry relative="1" as="geometry" />
        </mxCell>
        <mxCell id="PfmC7XR5RCS_PkKDe063-102" value="True" style="edgeLabel;html=1;align=center;verticalAlign=middle;resizable=0;points=[];" parent="PfmC7XR5RCS_PkKDe063-101" vertex="1" connectable="0">
          <mxGeometry x="-0.7862" y="-3" relative="1" as="geometry">
            <mxPoint x="3" y="-7" as="offset" />
          </mxGeometry>
        </mxCell>
        <mxCell id="PfmC7XR5RCS_PkKDe063-58" value="getIsDead()" style="rhombus;whiteSpace=wrap;html=1;" parent="1" vertex="1">
          <mxGeometry x="736" y="250" width="120" height="80" as="geometry" />
        </mxCell>
        <mxCell id="PfmC7XR5RCS_PkKDe063-60" style="edgeStyle=orthogonalEdgeStyle;rounded=0;orthogonalLoop=1;jettySize=auto;html=1;exitX=1;exitY=0.5;exitDx=0;exitDy=0;entryX=0.5;entryY=0;entryDx=0;entryDy=0;" parent="1" source="PfmC7XR5RCS_PkKDe063-58" target="PfmC7XR5RCS_PkKDe063-68" edge="1">
          <mxGeometry relative="1" as="geometry">
            <mxPoint x="716" y="290" as="sourcePoint" />
            <mxPoint x="617" y="300" as="targetPoint" />
          </mxGeometry>
        </mxCell>
        <mxCell id="PfmC7XR5RCS_PkKDe063-61" value="False" style="edgeLabel;html=1;align=center;verticalAlign=middle;resizable=0;points=[];" parent="PfmC7XR5RCS_PkKDe063-60" vertex="1" connectable="0">
          <mxGeometry x="0.1246" y="-1" relative="1" as="geometry">
            <mxPoint x="1" y="13" as="offset" />
          </mxGeometry>
        </mxCell>
        <mxCell id="PfmC7XR5RCS_PkKDe063-70" style="edgeStyle=orthogonalEdgeStyle;rounded=0;orthogonalLoop=1;jettySize=auto;html=1;entryX=0.5;entryY=0;entryDx=0;entryDy=0;" parent="1" source="PfmC7XR5RCS_PkKDe063-68" target="PfmC7XR5RCS_PkKDe063-69" edge="1">
          <mxGeometry relative="1" as="geometry" />
        </mxCell>
        <mxCell id="PfmC7XR5RCS_PkKDe063-68" value="getDamageTaken" style="shape=parallelogram;perimeter=parallelogramPerimeter;whiteSpace=wrap;html=1;fixedSize=1;" parent="1" vertex="1">
          <mxGeometry x="827" y="370" width="120" height="60" as="geometry" />
        </mxCell>
        <mxCell id="PfmC7XR5RCS_PkKDe063-72" value="" style="edgeStyle=orthogonalEdgeStyle;rounded=0;orthogonalLoop=1;jettySize=auto;html=1;" parent="1" source="PfmC7XR5RCS_PkKDe063-69" target="PfmC7XR5RCS_PkKDe063-71" edge="1">
          <mxGeometry relative="1" as="geometry" />
        </mxCell>
        <mxCell id="PfmC7XR5RCS_PkKDe063-69" value="result = actualHealth - damageTaken" style="rounded=0;whiteSpace=wrap;html=1;" parent="1" vertex="1">
          <mxGeometry x="827" y="470" width="120" height="60" as="geometry" />
        </mxCell>
        <mxCell id="PfmC7XR5RCS_PkKDe063-88" value="" style="edgeStyle=orthogonalEdgeStyle;rounded=0;orthogonalLoop=1;jettySize=auto;html=1;" parent="1" source="PfmC7XR5RCS_PkKDe063-71" target="PfmC7XR5RCS_PkKDe063-86" edge="1">
          <mxGeometry relative="1" as="geometry" />
        </mxCell>
        <mxCell id="PfmC7XR5RCS_PkKDe063-71" value="health = result" style="shape=document;whiteSpace=wrap;html=1;boundedLbl=1;" parent="1" vertex="1">
          <mxGeometry x="827" y="574.5" width="120" height="80" as="geometry" />
        </mxCell>
        <mxCell id="PfmC7XR5RCS_PkKDe063-73" value="end" style="ellipse;whiteSpace=wrap;html=1;" parent="1" vertex="1">
          <mxGeometry x="727" y="910" width="120" height="80" as="geometry" />
        </mxCell>
        <mxCell id="PfmC7XR5RCS_PkKDe063-81" value="&lt;p style=&quot;margin:0px;margin-top:4px;text-align:center;&quot;&gt;&lt;b&gt;Character&lt;/b&gt;&lt;/p&gt;&lt;hr size=&quot;1&quot; style=&quot;border-style:solid;&quot;&gt;- name: string&lt;br&gt;&lt;p style=&quot;margin:0px;margin-left:4px;&quot;&gt;- health: int&lt;/p&gt;&lt;p style=&quot;margin:0px;margin-left:4px;&quot;&gt;- damage: int&lt;/p&gt;&lt;p style=&quot;margin:0px;margin-left:4px;&quot;&gt;- isDead: bool&lt;/p&gt;&lt;hr size=&quot;1&quot; style=&quot;border-style:solid;&quot;&gt;&lt;p style=&quot;margin:0px;margin-left:4px;&quot;&gt;+ changeName()&lt;/p&gt;&lt;p style=&quot;margin:0px;margin-left:4px;&quot;&gt;+ cure()&lt;/p&gt;&lt;p style=&quot;margin:0px;margin-left:4px;&quot;&gt;+ getDamage()&lt;/p&gt;&lt;p style=&quot;margin:0px;margin-left:4px;&quot;&gt;+ getIsDead(bool)&lt;/p&gt;" style="verticalAlign=top;align=left;overflow=fill;html=1;whiteSpace=wrap;" parent="1" vertex="1">
          <mxGeometry width="160" height="160" as="geometry" />
        </mxCell>
        <mxCell id="PfmC7XR5RCS_PkKDe063-103" style="edgeStyle=orthogonalEdgeStyle;rounded=0;orthogonalLoop=1;jettySize=auto;html=1;exitX=0.5;exitY=1;exitDx=0;exitDy=0;entryX=0.5;entryY=0;entryDx=0;entryDy=0;" parent="1" source="PfmC7XR5RCS_PkKDe063-82" target="PfmC7XR5RCS_PkKDe063-73" edge="1">
          <mxGeometry relative="1" as="geometry" />
        </mxCell>
        <mxCell id="PfmC7XR5RCS_PkKDe063-82" value="death()" style="whiteSpace=wrap;html=1;" parent="1" vertex="1">
          <mxGeometry x="727" y="810" width="120" height="60" as="geometry" />
        </mxCell>
        <mxCell id="PfmC7XR5RCS_PkKDe063-86" value="getIsDead()" style="rhombus;whiteSpace=wrap;html=1;" parent="1" vertex="1">
          <mxGeometry x="827" y="690" width="120" height="80" as="geometry" />
        </mxCell>
        <mxCell id="PfmC7XR5RCS_PkKDe063-91" style="edgeStyle=orthogonalEdgeStyle;rounded=0;orthogonalLoop=1;jettySize=auto;html=1;entryX=1;entryY=0.5;entryDx=0;entryDy=0;exitX=1;exitY=0.5;exitDx=0;exitDy=0;" parent="1" source="PfmC7XR5RCS_PkKDe063-93" target="PfmC7XR5RCS_PkKDe063-73" edge="1">
          <mxGeometry relative="1" as="geometry">
            <mxPoint x="987" y="810" as="targetPoint" />
            <Array as="points">
              <mxPoint x="987" y="730" />
              <mxPoint x="987" y="950" />
            </Array>
          </mxGeometry>
        </mxCell>
        <mxCell id="PfmC7XR5RCS_PkKDe063-92" value="False" style="edgeLabel;html=1;align=center;verticalAlign=middle;resizable=0;points=[];" parent="PfmC7XR5RCS_PkKDe063-91" vertex="1" connectable="0">
          <mxGeometry x="0.1596" y="-3" relative="1" as="geometry">
            <mxPoint x="3" y="-152" as="offset" />
          </mxGeometry>
        </mxCell>
        <mxCell id="PfmC7XR5RCS_PkKDe063-93" value="getsDead()" style="rhombus;whiteSpace=wrap;html=1;" parent="1" vertex="1">
          <mxGeometry x="827" y="690" width="120" height="80" as="geometry" />
        </mxCell>
        <mxCell id="PfmC7XR5RCS_PkKDe063-96" style="edgeStyle=orthogonalEdgeStyle;rounded=0;orthogonalLoop=1;jettySize=auto;html=1;entryX=0.5;entryY=0;entryDx=0;entryDy=0;exitX=0;exitY=0.5;exitDx=0;exitDy=0;" parent="1" source="PfmC7XR5RCS_PkKDe063-93" target="PfmC7XR5RCS_PkKDe063-82" edge="1">
          <mxGeometry relative="1" as="geometry">
            <mxPoint x="807" y="730" as="sourcePoint" />
            <mxPoint x="787" y="810" as="targetPoint" />
          </mxGeometry>
        </mxCell>
        <mxCell id="PfmC7XR5RCS_PkKDe063-97" value="True" style="edgeLabel;html=1;align=center;verticalAlign=middle;resizable=0;points=[];" parent="PfmC7XR5RCS_PkKDe063-96" vertex="1" connectable="0">
          <mxGeometry x="0.1246" y="-1" relative="1" as="geometry">
            <mxPoint x="1" y="12" as="offset" />
          </mxGeometry>
        </mxCell>
        <mxCell id="PfmC7XR5RCS_PkKDe063-104" value="" style="edgeStyle=orthogonalEdgeStyle;rounded=0;orthogonalLoop=1;jettySize=auto;html=1;" parent="1" source="PfmC7XR5RCS_PkKDe063-105" target="PfmC7XR5RCS_PkKDe063-107" edge="1">
          <mxGeometry relative="1" as="geometry" />
        </mxCell>
        <mxCell id="PfmC7XR5RCS_PkKDe063-105" value="&lt;span style=&quot;text-align: left;&quot;&gt;getDamage()&lt;/span&gt;" style="ellipse;whiteSpace=wrap;html=1;" parent="1" vertex="1">
          <mxGeometry x="1065.93" y="30" width="120" height="80" as="geometry" />
        </mxCell>
        <mxCell id="PfmC7XR5RCS_PkKDe063-106" value="" style="edgeStyle=orthogonalEdgeStyle;rounded=0;orthogonalLoop=1;jettySize=auto;html=1;" parent="1" source="PfmC7XR5RCS_PkKDe063-107" target="PfmC7XR5RCS_PkKDe063-110" edge="1">
          <mxGeometry relative="1" as="geometry" />
        </mxCell>
        <mxCell id="PfmC7XR5RCS_PkKDe063-107" value="getHealth()" style="shape=parallelogram;perimeter=parallelogramPerimeter;whiteSpace=wrap;html=1;fixedSize=1;" parent="1" vertex="1">
          <mxGeometry x="1065.93" y="150" width="120" height="60" as="geometry" />
        </mxCell>
        <mxCell id="PfmC7XR5RCS_PkKDe063-108" style="edgeStyle=orthogonalEdgeStyle;rounded=0;orthogonalLoop=1;jettySize=auto;html=1;exitX=0;exitY=0.5;exitDx=0;exitDy=0;entryX=0;entryY=0.5;entryDx=0;entryDy=0;" parent="1" source="PfmC7XR5RCS_PkKDe063-110" target="PfmC7XR5RCS_PkKDe063-119" edge="1">
          <mxGeometry relative="1" as="geometry" />
        </mxCell>
        <mxCell id="PfmC7XR5RCS_PkKDe063-109" value="True" style="edgeLabel;html=1;align=center;verticalAlign=middle;resizable=0;points=[];" parent="PfmC7XR5RCS_PkKDe063-108" vertex="1" connectable="0">
          <mxGeometry x="-0.7862" y="-3" relative="1" as="geometry">
            <mxPoint x="3" y="-7" as="offset" />
          </mxGeometry>
        </mxCell>
        <mxCell id="PfmC7XR5RCS_PkKDe063-110" value="getIsDead()" style="rhombus;whiteSpace=wrap;html=1;" parent="1" vertex="1">
          <mxGeometry x="1065.93" y="250" width="120" height="80" as="geometry" />
        </mxCell>
        <mxCell id="PfmC7XR5RCS_PkKDe063-111" style="edgeStyle=orthogonalEdgeStyle;rounded=0;orthogonalLoop=1;jettySize=auto;html=1;exitX=1;exitY=0.5;exitDx=0;exitDy=0;entryX=0.5;entryY=0;entryDx=0;entryDy=0;" parent="1" source="PfmC7XR5RCS_PkKDe063-110" target="PfmC7XR5RCS_PkKDe063-114" edge="1">
          <mxGeometry relative="1" as="geometry">
            <mxPoint x="1045.93" y="290" as="sourcePoint" />
            <mxPoint x="946.9300000000001" y="300" as="targetPoint" />
          </mxGeometry>
        </mxCell>
        <mxCell id="PfmC7XR5RCS_PkKDe063-112" value="False" style="edgeLabel;html=1;align=center;verticalAlign=middle;resizable=0;points=[];" parent="PfmC7XR5RCS_PkKDe063-111" vertex="1" connectable="0">
          <mxGeometry x="0.1246" y="-1" relative="1" as="geometry">
            <mxPoint x="1" y="13" as="offset" />
          </mxGeometry>
        </mxCell>
        <mxCell id="PfmC7XR5RCS_PkKDe063-113" style="edgeStyle=orthogonalEdgeStyle;rounded=0;orthogonalLoop=1;jettySize=auto;html=1;entryX=0.5;entryY=0;entryDx=0;entryDy=0;" parent="1" source="PfmC7XR5RCS_PkKDe063-114" target="PfmC7XR5RCS_PkKDe063-116" edge="1">
          <mxGeometry relative="1" as="geometry" />
        </mxCell>
        <mxCell id="PfmC7XR5RCS_PkKDe063-114" value="getDamageTaken" style="shape=parallelogram;perimeter=parallelogramPerimeter;whiteSpace=wrap;html=1;fixedSize=1;" parent="1" vertex="1">
          <mxGeometry x="1156.93" y="370" width="120" height="60" as="geometry" />
        </mxCell>
        <mxCell id="PfmC7XR5RCS_PkKDe063-115" value="" style="edgeStyle=orthogonalEdgeStyle;rounded=0;orthogonalLoop=1;jettySize=auto;html=1;" parent="1" source="PfmC7XR5RCS_PkKDe063-116" target="PfmC7XR5RCS_PkKDe063-118" edge="1">
          <mxGeometry relative="1" as="geometry" />
        </mxCell>
        <mxCell id="PfmC7XR5RCS_PkKDe063-116" value="result = actualHealth - damageTaken" style="rounded=0;whiteSpace=wrap;html=1;" parent="1" vertex="1">
          <mxGeometry x="1156.93" y="470" width="120" height="60" as="geometry" />
        </mxCell>
        <mxCell id="PfmC7XR5RCS_PkKDe063-117" value="" style="edgeStyle=orthogonalEdgeStyle;rounded=0;orthogonalLoop=1;jettySize=auto;html=1;" parent="1" source="PfmC7XR5RCS_PkKDe063-118" target="PfmC7XR5RCS_PkKDe063-122" edge="1">
          <mxGeometry relative="1" as="geometry" />
        </mxCell>
        <mxCell id="PfmC7XR5RCS_PkKDe063-118" value="health = result" style="shape=document;whiteSpace=wrap;html=1;boundedLbl=1;" parent="1" vertex="1">
          <mxGeometry x="1156.93" y="574.5" width="120" height="80" as="geometry" />
        </mxCell>
        <mxCell id="PfmC7XR5RCS_PkKDe063-119" value="end" style="ellipse;whiteSpace=wrap;html=1;" parent="1" vertex="1">
          <mxGeometry x="1056.93" y="910" width="120" height="80" as="geometry" />
        </mxCell>
        <mxCell id="PfmC7XR5RCS_PkKDe063-120" style="edgeStyle=orthogonalEdgeStyle;rounded=0;orthogonalLoop=1;jettySize=auto;html=1;exitX=0.5;exitY=1;exitDx=0;exitDy=0;entryX=0.5;entryY=0;entryDx=0;entryDy=0;" parent="1" source="PfmC7XR5RCS_PkKDe063-121" target="PfmC7XR5RCS_PkKDe063-119" edge="1">
          <mxGeometry relative="1" as="geometry" />
        </mxCell>
        <mxCell id="PfmC7XR5RCS_PkKDe063-121" value="death()" style="whiteSpace=wrap;html=1;" parent="1" vertex="1">
          <mxGeometry x="1056.93" y="810" width="120" height="60" as="geometry" />
        </mxCell>
        <mxCell id="PfmC7XR5RCS_PkKDe063-122" value="getIsDead()" style="rhombus;whiteSpace=wrap;html=1;" parent="1" vertex="1">
          <mxGeometry x="1156.93" y="690" width="120" height="80" as="geometry" />
        </mxCell>
        <mxCell id="PfmC7XR5RCS_PkKDe063-123" style="edgeStyle=orthogonalEdgeStyle;rounded=0;orthogonalLoop=1;jettySize=auto;html=1;entryX=0.5;entryY=1;entryDx=0;entryDy=0;exitX=1;exitY=0.5;exitDx=0;exitDy=0;" parent="1" source="PfmC7XR5RCS_PkKDe063-125" target="PfmC7XR5RCS_PkKDe063-130" edge="1">
          <mxGeometry relative="1" as="geometry">
            <mxPoint x="1316.93" y="810" as="targetPoint" />
            <Array as="points">
              <mxPoint x="1347" y="730" />
            </Array>
          </mxGeometry>
        </mxCell>
        <mxCell id="PfmC7XR5RCS_PkKDe063-124" value="False" style="edgeLabel;html=1;align=center;verticalAlign=middle;resizable=0;points=[];" parent="PfmC7XR5RCS_PkKDe063-123" vertex="1" connectable="0">
          <mxGeometry x="0.1596" y="-3" relative="1" as="geometry">
            <mxPoint x="-3" y="6" as="offset" />
          </mxGeometry>
        </mxCell>
        <mxCell id="PfmC7XR5RCS_PkKDe063-125" value="getsDead()" style="rhombus;whiteSpace=wrap;html=1;" parent="1" vertex="1">
          <mxGeometry x="1156.93" y="690" width="120" height="80" as="geometry" />
        </mxCell>
        <mxCell id="PfmC7XR5RCS_PkKDe063-126" style="edgeStyle=orthogonalEdgeStyle;rounded=0;orthogonalLoop=1;jettySize=auto;html=1;entryX=0.5;entryY=0;entryDx=0;entryDy=0;exitX=0;exitY=0.5;exitDx=0;exitDy=0;" parent="1" source="PfmC7XR5RCS_PkKDe063-125" target="PfmC7XR5RCS_PkKDe063-121" edge="1">
          <mxGeometry relative="1" as="geometry">
            <mxPoint x="1136.93" y="730" as="sourcePoint" />
            <mxPoint x="1116.93" y="810" as="targetPoint" />
          </mxGeometry>
        </mxCell>
        <mxCell id="PfmC7XR5RCS_PkKDe063-127" value="True" style="edgeLabel;html=1;align=center;verticalAlign=middle;resizable=0;points=[];" parent="PfmC7XR5RCS_PkKDe063-126" vertex="1" connectable="0">
          <mxGeometry x="0.1246" y="-1" relative="1" as="geometry">
            <mxPoint x="1" y="12" as="offset" />
          </mxGeometry>
        </mxCell>
        <mxCell id="PfmC7XR5RCS_PkKDe063-128" value="Hit Damage" style="text;strokeColor=none;align=center;fillColor=none;html=1;verticalAlign=middle;whiteSpace=wrap;rounded=0;" parent="1" vertex="1">
          <mxGeometry x="746" width="100" height="30" as="geometry" />
        </mxCell>
        <mxCell id="PfmC7XR5RCS_PkKDe063-129" value="Constant Damage Until Health = 1" style="text;strokeColor=none;align=center;fillColor=none;html=1;verticalAlign=middle;whiteSpace=wrap;rounded=0;" parent="1" vertex="1">
          <mxGeometry x="1025.4" width="201.07" height="30" as="geometry" />
        </mxCell>
        <mxCell id="PfmC7XR5RCS_PkKDe063-131" style="edgeStyle=orthogonalEdgeStyle;rounded=0;orthogonalLoop=1;jettySize=auto;html=1;exitX=0.5;exitY=0;exitDx=0;exitDy=0;entryX=1;entryY=0.5;entryDx=0;entryDy=0;" parent="1" source="PfmC7XR5RCS_PkKDe063-130" target="PfmC7XR5RCS_PkKDe063-114" edge="1">
          <mxGeometry relative="1" as="geometry">
            <Array as="points">
              <mxPoint x="1347" y="400" />
            </Array>
          </mxGeometry>
        </mxCell>
        <mxCell id="PfmC7XR5RCS_PkKDe063-132" value="False" style="edgeLabel;html=1;align=center;verticalAlign=middle;resizable=0;points=[];" parent="PfmC7XR5RCS_PkKDe063-131" vertex="1" connectable="0">
          <mxGeometry x="-0.7185" relative="1" as="geometry">
            <mxPoint as="offset" />
          </mxGeometry>
        </mxCell>
        <mxCell id="PfmC7XR5RCS_PkKDe063-133" style="edgeStyle=orthogonalEdgeStyle;rounded=0;orthogonalLoop=1;jettySize=auto;html=1;exitX=1;exitY=0.5;exitDx=0;exitDy=0;entryX=1;entryY=0.5;entryDx=0;entryDy=0;" parent="1" source="PfmC7XR5RCS_PkKDe063-130" target="PfmC7XR5RCS_PkKDe063-119" edge="1">
          <mxGeometry relative="1" as="geometry">
            <mxPoint x="1327" y="850" as="targetPoint" />
            <Array as="points">
              <mxPoint x="1407" y="950" />
            </Array>
          </mxGeometry>
        </mxCell>
        <mxCell id="PfmC7XR5RCS_PkKDe063-134" value="True" style="edgeLabel;html=1;align=center;verticalAlign=middle;resizable=0;points=[];" parent="PfmC7XR5RCS_PkKDe063-133" vertex="1" connectable="0">
          <mxGeometry x="-0.8828" y="1" relative="1" as="geometry">
            <mxPoint as="offset" />
          </mxGeometry>
        </mxCell>
        <mxCell id="PfmC7XR5RCS_PkKDe063-130" value="health &amp;lt;= 1" style="rhombus;whiteSpace=wrap;html=1;" parent="1" vertex="1">
          <mxGeometry x="1287" y="520" width="120" height="80" as="geometry" />
        </mxCell>
        <mxCell id="PfmC7XR5RCS_PkKDe063-135" value="" style="edgeStyle=orthogonalEdgeStyle;rounded=0;orthogonalLoop=1;jettySize=auto;html=1;" parent="1" source="PfmC7XR5RCS_PkKDe063-136" target="PfmC7XR5RCS_PkKDe063-138" edge="1">
          <mxGeometry relative="1" as="geometry" />
        </mxCell>
        <mxCell id="PfmC7XR5RCS_PkKDe063-136" value="&lt;span style=&quot;text-align: left;&quot;&gt;getDamage()&lt;/span&gt;" style="ellipse;whiteSpace=wrap;html=1;" parent="1" vertex="1">
          <mxGeometry x="1488.19" y="30" width="120" height="80" as="geometry" />
        </mxCell>
        <mxCell id="PfmC7XR5RCS_PkKDe063-166" style="edgeStyle=orthogonalEdgeStyle;rounded=0;orthogonalLoop=1;jettySize=auto;html=1;entryX=0.5;entryY=0;entryDx=0;entryDy=0;" parent="1" source="PfmC7XR5RCS_PkKDe063-138" target="PfmC7XR5RCS_PkKDe063-167" edge="1">
          <mxGeometry relative="1" as="geometry">
            <mxPoint x="1548.1899999999998" y="320" as="targetPoint" />
          </mxGeometry>
        </mxCell>
        <mxCell id="PfmC7XR5RCS_PkKDe063-138" value="getHealth()" style="shape=parallelogram;perimeter=parallelogramPerimeter;whiteSpace=wrap;html=1;fixedSize=1;" parent="1" vertex="1">
          <mxGeometry x="1488.19" y="150" width="120" height="60" as="geometry" />
        </mxCell>
        <mxCell id="PfmC7XR5RCS_PkKDe063-139" style="edgeStyle=orthogonalEdgeStyle;rounded=0;orthogonalLoop=1;jettySize=auto;html=1;exitX=0;exitY=0.5;exitDx=0;exitDy=0;entryX=0;entryY=0.5;entryDx=0;entryDy=0;" parent="1" source="PfmC7XR5RCS_PkKDe063-141" target="PfmC7XR5RCS_PkKDe063-150" edge="1">
          <mxGeometry relative="1" as="geometry" />
        </mxCell>
        <mxCell id="PfmC7XR5RCS_PkKDe063-140" value="True" style="edgeLabel;html=1;align=center;verticalAlign=middle;resizable=0;points=[];" parent="PfmC7XR5RCS_PkKDe063-139" vertex="1" connectable="0">
          <mxGeometry x="-0.7862" y="-3" relative="1" as="geometry">
            <mxPoint x="3" y="-7" as="offset" />
          </mxGeometry>
        </mxCell>
        <mxCell id="PfmC7XR5RCS_PkKDe063-141" value="getIsDead()" style="rhombus;whiteSpace=wrap;html=1;" parent="1" vertex="1">
          <mxGeometry x="1488.1900000000003" y="350" width="120" height="80" as="geometry" />
        </mxCell>
        <mxCell id="PfmC7XR5RCS_PkKDe063-142" style="edgeStyle=orthogonalEdgeStyle;rounded=0;orthogonalLoop=1;jettySize=auto;html=1;exitX=1;exitY=0.5;exitDx=0;exitDy=0;entryX=0.5;entryY=0;entryDx=0;entryDy=0;" parent="1" source="PfmC7XR5RCS_PkKDe063-141" target="PfmC7XR5RCS_PkKDe063-145" edge="1">
          <mxGeometry relative="1" as="geometry">
            <mxPoint x="1468.1900000000003" y="390" as="sourcePoint" />
            <mxPoint x="1369.1900000000003" y="400" as="targetPoint" />
          </mxGeometry>
        </mxCell>
        <mxCell id="PfmC7XR5RCS_PkKDe063-143" value="False" style="edgeLabel;html=1;align=center;verticalAlign=middle;resizable=0;points=[];" parent="PfmC7XR5RCS_PkKDe063-142" vertex="1" connectable="0">
          <mxGeometry x="0.1246" y="-1" relative="1" as="geometry">
            <mxPoint x="1" y="13" as="offset" />
          </mxGeometry>
        </mxCell>
        <mxCell id="PfmC7XR5RCS_PkKDe063-144" style="edgeStyle=orthogonalEdgeStyle;rounded=0;orthogonalLoop=1;jettySize=auto;html=1;entryX=0.5;entryY=0;entryDx=0;entryDy=0;" parent="1" source="PfmC7XR5RCS_PkKDe063-145" target="PfmC7XR5RCS_PkKDe063-147" edge="1">
          <mxGeometry relative="1" as="geometry" />
        </mxCell>
        <mxCell id="PfmC7XR5RCS_PkKDe063-145" value="getDamageTaken" style="shape=parallelogram;perimeter=parallelogramPerimeter;whiteSpace=wrap;html=1;fixedSize=1;" parent="1" vertex="1">
          <mxGeometry x="1579.1900000000003" y="470" width="120" height="60" as="geometry" />
        </mxCell>
        <mxCell id="PfmC7XR5RCS_PkKDe063-146" value="" style="edgeStyle=orthogonalEdgeStyle;rounded=0;orthogonalLoop=1;jettySize=auto;html=1;" parent="1" source="PfmC7XR5RCS_PkKDe063-147" target="PfmC7XR5RCS_PkKDe063-149" edge="1">
          <mxGeometry relative="1" as="geometry" />
        </mxCell>
        <mxCell id="PfmC7XR5RCS_PkKDe063-147" value="result = actualHealth - damageTaken" style="rounded=0;whiteSpace=wrap;html=1;" parent="1" vertex="1">
          <mxGeometry x="1579.1900000000003" y="570" width="120" height="60" as="geometry" />
        </mxCell>
        <mxCell id="PfmC7XR5RCS_PkKDe063-148" value="" style="edgeStyle=orthogonalEdgeStyle;rounded=0;orthogonalLoop=1;jettySize=auto;html=1;exitX=0.5;exitY=1;exitDx=0;exitDy=0;" parent="1" source="PfmC7XR5RCS_PkKDe063-169" target="PfmC7XR5RCS_PkKDe063-153" edge="1">
          <mxGeometry relative="1" as="geometry">
            <mxPoint x="1639.24" y="889.9999999999998" as="sourcePoint" />
            <Array as="points" />
          </mxGeometry>
        </mxCell>
        <mxCell id="PfmC7XR5RCS_PkKDe063-170" value="" style="edgeStyle=orthogonalEdgeStyle;rounded=0;orthogonalLoop=1;jettySize=auto;html=1;" parent="1" source="PfmC7XR5RCS_PkKDe063-149" target="PfmC7XR5RCS_PkKDe063-169" edge="1">
          <mxGeometry relative="1" as="geometry" />
        </mxCell>
        <mxCell id="PfmC7XR5RCS_PkKDe063-149" value="health = result" style="shape=document;whiteSpace=wrap;html=1;boundedLbl=1;" parent="1" vertex="1">
          <mxGeometry x="1579.1900000000003" y="674.5" width="120" height="80" as="geometry" />
        </mxCell>
        <mxCell id="PfmC7XR5RCS_PkKDe063-150" value="end" style="ellipse;whiteSpace=wrap;html=1;" parent="1" vertex="1">
          <mxGeometry x="1479.1900000000003" y="1145.5" width="120" height="80" as="geometry" />
        </mxCell>
        <mxCell id="PfmC7XR5RCS_PkKDe063-151" style="edgeStyle=orthogonalEdgeStyle;rounded=0;orthogonalLoop=1;jettySize=auto;html=1;exitX=0.5;exitY=1;exitDx=0;exitDy=0;entryX=0.5;entryY=0;entryDx=0;entryDy=0;" parent="1" source="PfmC7XR5RCS_PkKDe063-152" target="PfmC7XR5RCS_PkKDe063-150" edge="1">
          <mxGeometry relative="1" as="geometry" />
        </mxCell>
        <mxCell id="PfmC7XR5RCS_PkKDe063-152" value="death()" style="whiteSpace=wrap;html=1;" parent="1" vertex="1">
          <mxGeometry x="1479.1900000000003" y="1045.5" width="120" height="60" as="geometry" />
        </mxCell>
        <mxCell id="PfmC7XR5RCS_PkKDe063-153" value="getIsDead()" style="rhombus;whiteSpace=wrap;html=1;" parent="1" vertex="1">
          <mxGeometry x="1579.1900000000003" y="925.5" width="120" height="80" as="geometry" />
        </mxCell>
        <mxCell id="PfmC7XR5RCS_PkKDe063-172" style="edgeStyle=orthogonalEdgeStyle;rounded=0;orthogonalLoop=1;jettySize=auto;html=1;entryX=0.5;entryY=1;entryDx=0;entryDy=0;" parent="1" source="PfmC7XR5RCS_PkKDe063-156" target="PfmC7XR5RCS_PkKDe063-173" edge="1">
          <mxGeometry relative="1" as="geometry">
            <mxPoint x="1822.24" y="890" as="targetPoint" />
          </mxGeometry>
        </mxCell>
        <mxCell id="PfmC7XR5RCS_PkKDe063-175" value="False" style="edgeLabel;html=1;align=center;verticalAlign=middle;resizable=0;points=[];" parent="PfmC7XR5RCS_PkKDe063-172" vertex="1" connectable="0">
          <mxGeometry x="-0.6472" y="-1" relative="1" as="geometry">
            <mxPoint as="offset" />
          </mxGeometry>
        </mxCell>
        <mxCell id="PfmC7XR5RCS_PkKDe063-156" value="getsDead()" style="rhombus;whiteSpace=wrap;html=1;" parent="1" vertex="1">
          <mxGeometry x="1579.1900000000003" y="925.5" width="120" height="80" as="geometry" />
        </mxCell>
        <mxCell id="PfmC7XR5RCS_PkKDe063-157" style="edgeStyle=orthogonalEdgeStyle;rounded=0;orthogonalLoop=1;jettySize=auto;html=1;entryX=0.5;entryY=0;entryDx=0;entryDy=0;exitX=0;exitY=0.5;exitDx=0;exitDy=0;" parent="1" source="PfmC7XR5RCS_PkKDe063-156" target="PfmC7XR5RCS_PkKDe063-152" edge="1">
          <mxGeometry relative="1" as="geometry">
            <mxPoint x="1559.1900000000003" y="965.5" as="sourcePoint" />
            <mxPoint x="1539.1900000000003" y="1045.5" as="targetPoint" />
          </mxGeometry>
        </mxCell>
        <mxCell id="PfmC7XR5RCS_PkKDe063-158" value="True" style="edgeLabel;html=1;align=center;verticalAlign=middle;resizable=0;points=[];" parent="PfmC7XR5RCS_PkKDe063-157" vertex="1" connectable="0">
          <mxGeometry x="0.1246" y="-1" relative="1" as="geometry">
            <mxPoint x="1" y="12" as="offset" />
          </mxGeometry>
        </mxCell>
        <mxCell id="PfmC7XR5RCS_PkKDe063-159" value="Constant Damage for x amount of times" style="text;strokeColor=none;align=center;fillColor=none;html=1;verticalAlign=middle;whiteSpace=wrap;rounded=0;" parent="1" vertex="1">
          <mxGeometry x="1437.0000000000002" width="222.37" height="30" as="geometry" />
        </mxCell>
        <mxCell id="PfmC7XR5RCS_PkKDe063-168" style="edgeStyle=orthogonalEdgeStyle;rounded=0;orthogonalLoop=1;jettySize=auto;html=1;entryX=0.5;entryY=0;entryDx=0;entryDy=0;" parent="1" source="PfmC7XR5RCS_PkKDe063-167" target="PfmC7XR5RCS_PkKDe063-141" edge="1">
          <mxGeometry relative="1" as="geometry" />
        </mxCell>
        <mxCell id="PfmC7XR5RCS_PkKDe063-167" value="Counter = 0" style="rounded=0;whiteSpace=wrap;html=1;" parent="1" vertex="1">
          <mxGeometry x="1488.19" y="250" width="120" height="60" as="geometry" />
        </mxCell>
        <mxCell id="PfmC7XR5RCS_PkKDe063-169" value="counter = counter + 1" style="whiteSpace=wrap;html=1;" parent="1" vertex="1">
          <mxGeometry x="1579.1900000000003" y="800" width="120" height="60" as="geometry" />
        </mxCell>
        <mxCell id="PfmC7XR5RCS_PkKDe063-174" style="edgeStyle=orthogonalEdgeStyle;rounded=0;orthogonalLoop=1;jettySize=auto;html=1;entryX=1;entryY=0.5;entryDx=0;entryDy=0;" parent="1" source="PfmC7XR5RCS_PkKDe063-173" target="PfmC7XR5RCS_PkKDe063-145" edge="1">
          <mxGeometry relative="1" as="geometry">
            <Array as="points">
              <mxPoint x="1770.24" y="500" />
            </Array>
          </mxGeometry>
        </mxCell>
        <mxCell id="PfmC7XR5RCS_PkKDe063-176" value="False" style="edgeLabel;html=1;align=center;verticalAlign=middle;resizable=0;points=[];" parent="PfmC7XR5RCS_PkKDe063-174" vertex="1" connectable="0">
          <mxGeometry x="-0.8582" y="2" relative="1" as="geometry">
            <mxPoint as="offset" />
          </mxGeometry>
        </mxCell>
        <mxCell id="PfmC7XR5RCS_PkKDe063-177" style="edgeStyle=orthogonalEdgeStyle;rounded=0;orthogonalLoop=1;jettySize=auto;html=1;entryX=1;entryY=0.5;entryDx=0;entryDy=0;" parent="1" source="PfmC7XR5RCS_PkKDe063-173" target="PfmC7XR5RCS_PkKDe063-150" edge="1">
          <mxGeometry relative="1" as="geometry">
            <Array as="points">
              <mxPoint x="1832.24" y="830" />
              <mxPoint x="1832.24" y="1186" />
            </Array>
          </mxGeometry>
        </mxCell>
        <mxCell id="PfmC7XR5RCS_PkKDe063-178" value="True" style="edgeLabel;html=1;align=center;verticalAlign=middle;resizable=0;points=[];" parent="PfmC7XR5RCS_PkKDe063-177" vertex="1" connectable="0">
          <mxGeometry x="-0.8477" y="1" relative="1" as="geometry">
            <mxPoint as="offset" />
          </mxGeometry>
        </mxCell>
        <mxCell id="PfmC7XR5RCS_PkKDe063-173" value="counter &amp;gt;= 3" style="rhombus;whiteSpace=wrap;html=1;" parent="1" vertex="1">
          <mxGeometry x="1710.2400000000002" y="790" width="120" height="80" as="geometry" />
        </mxCell>
      </root>
    </mxGraphModel>
  </diagram>
</mxfile>
